<svg xmlns="http://www.w3.org/2000/svg" xmlns:xlink="http://www.w3.org/1999/xlink" width="500" zoomAndPan="magnify" viewBox="0 0 375 374.999991" height="500" preserveAspectRatio="xMidYMid meet" version="1.0"><defs><g/></defs><g fill="#000000" fill-opacity="1"><g transform="translate(-8.674698, 309.098947)"><g><path d="M 11.484375 0 L 11.484375 -259.625 L 115.453125 -259.625 L 115.453125 -209.453125 L 64.375 -209.453125 L 64.375 -158.984375 L 113.34375 -158.984375 L 113.34375 -110.015625 L 64.375 -110.015625 L 64.375 -50.46875 L 118.78125 -50.46875 L 118.78125 0 Z M 11.484375 0 "/></g></g></g><g fill="#000000" fill-opacity="1"><g transform="translate(115.853811, 309.098947)"><g><path d="M 71.9375 2.421875 C 53 2.421875 37.835938 -3.519531 26.453125 -15.40625 C 15.066406 -27.300781 9.375 -43.625 9.375 -64.375 L 9.375 -184.0625 C 9.375 -209.863281 14.507812 -229.3125 24.78125 -242.40625 C 35.0625 -255.5 51.179688 -262.046875 73.140625 -262.046875 C 92.285156 -262.046875 107.703125 -256.804688 119.390625 -246.328125 C 131.078125 -235.847656 136.921875 -220.738281 136.921875 -201 L 136.921875 -156.265625 L 85.234375 -156.265625 L 85.234375 -194.65625 C 85.234375 -202.101562 84.328125 -207.238281 82.515625 -210.0625 C 80.703125 -212.882812 77.578125 -214.296875 73.140625 -214.296875 C 68.503906 -214.296875 65.328125 -212.679688 63.609375 -209.453125 C 61.898438 -206.234375 61.046875 -201.5 61.046875 -195.25 L 61.046875 -64.984375 C 61.046875 -58.128906 62.050781 -53.140625 64.0625 -50.015625 C 66.082031 -46.898438 69.109375 -45.34375 73.140625 -45.34375 C 81.203125 -45.34375 85.234375 -51.890625 85.234375 -64.984375 L 85.234375 -111.828125 L 137.53125 -111.828125 L 137.53125 -62.875 C 137.53125 -19.34375 115.664062 2.421875 71.9375 2.421875 Z M 71.9375 2.421875 "/></g></g></g><g fill="#000000" fill-opacity="1"><g transform="translate(259.122089, 309.098947)"><g><path d="M 11.484375 0 L 11.484375 -259.625 L 115.453125 -259.625 L 115.453125 -209.453125 L 64.375 -209.453125 L 64.375 -158.984375 L 113.34375 -158.984375 L 113.34375 -110.015625 L 64.375 -110.015625 L 64.375 -50.46875 L 118.78125 -50.46875 L 118.78125 0 Z M 11.484375 0 "/></g></g></g></svg>