<svg xmlns="http://www.w3.org/2000/svg" xmlns:xlink="http://www.w3.org/1999/xlink" width="500" zoomAndPan="magnify" viewBox="0 0 375 374.999991" height="500" preserveAspectRatio="xMidYMid meet" version="1.0"><defs><g/></defs><rect x="-37.5" width="450" fill="#ffffff" y="-37.499999" height="449.999989" fill-opacity="1"/><rect x="-37.5" width="450" fill="#ffffff" y="-37.499999" height="449.999989" fill-opacity="1"/><g fill="#000000" fill-opacity="1"><g transform="translate(-10.039058, 369.459973)"><g><path d="M 13.484375 0 L 13.484375 -304.890625 L 135.59375 -304.890625 L 135.59375 -245.96875 L 75.609375 -245.96875 L 75.609375 -186.703125 L 133.109375 -186.703125 L 133.109375 -129.203125 L 75.609375 -129.203125 L 75.609375 -59.28125 L 139.484375 -59.28125 L 139.484375 0 Z M 13.484375 0 "/></g></g></g><g fill="#000000" fill-opacity="1"><g transform="translate(136.187867, 369.459973)"><g><path d="M 84.46875 2.84375 C 62.226562 2.84375 44.421875 -4.132812 31.046875 -18.09375 C 17.679688 -32.0625 11 -51.234375 11 -75.609375 L 11 -216.15625 C 11 -246.445312 17.03125 -269.28125 29.09375 -284.65625 C 41.164062 -300.039062 60.097656 -307.734375 85.890625 -307.734375 C 108.367188 -307.734375 126.46875 -301.578125 140.1875 -289.265625 C 153.914062 -276.960938 160.78125 -259.21875 160.78125 -236.03125 L 160.78125 -183.5 L 100.09375 -183.5 L 100.09375 -228.578125 C 100.09375 -237.335938 99.023438 -243.375 96.890625 -246.6875 C 94.765625 -250 91.097656 -251.65625 85.890625 -251.65625 C 80.453125 -251.65625 76.726562 -249.757812 74.71875 -245.96875 C 72.707031 -242.1875 71.703125 -236.628906 71.703125 -229.296875 L 71.703125 -76.3125 C 71.703125 -68.269531 72.882812 -62.410156 75.25 -58.734375 C 77.613281 -55.066406 81.160156 -53.234375 85.890625 -53.234375 C 95.359375 -53.234375 100.09375 -60.925781 100.09375 -76.3125 L 100.09375 -131.328125 L 161.5 -131.328125 L 161.5 -73.828125 C 161.5 -22.710938 135.820312 2.84375 84.46875 2.84375 Z M 84.46875 2.84375 "/></g></g></g><g fill="#000000" fill-opacity="1"><g transform="translate(304.419798, 369.459973)"><g><path d="M 10.640625 0 L 10.640625 -304.890625 L 69.5625 -304.890625 L 69.5625 0 Z M 9.234375 -320.859375 L 9.234375 -372.6875 L 71.34375 -372.6875 L 71.34375 -320.859375 Z M 9.234375 -320.859375 "/></g></g></g></svg>